<svg width="467" height="486" viewBox="0 0 467 486" fill="none" xmlns="http://www.w3.org/2000/svg">
<g clip-path="url(#clip0_5_2)">
<path d="M308.616 433.888H314.735V359.08H308.616V433.888Z" fill="white" stroke="black" stroke-width="0.666667" stroke-miterlimit="10" stroke-linecap="round" stroke-linejoin="round"/>
<path d="M311.676 431.692C316.922 431.692 321.174 435.946 321.174 441.193H302.179C302.179 435.946 306.431 431.692 311.676 431.692Z" fill="white"/>
<path d="M311.676 431.692C316.922 431.692 321.174 435.946 321.174 441.193H302.179C302.179 435.946 306.431 431.692 311.676 431.692Z" stroke="black" stroke-width="0.666667" stroke-miterlimit="10" stroke-linecap="round" stroke-linejoin="round"/>
<path d="M311.4 441.15H354.956V454.139H350.227V445.211H311.4V441.15Z" fill="white"/>
<path d="M311.4 441.15H354.956V454.139H350.227V445.211H311.4V441.15Z" stroke="black" stroke-width="0.666667" stroke-miterlimit="10" stroke-linecap="round" stroke-linejoin="round"/>
<path d="M347.166 454.542C347.166 457.511 349.572 459.918 352.541 459.918C355.509 459.918 357.915 457.511 357.915 454.542C357.915 451.573 355.509 449.166 352.541 449.166C349.572 449.166 347.166 451.573 347.166 454.542Z" fill="white"/>
<path d="M347.166 454.542C347.166 457.511 349.572 459.918 352.541 459.918C355.509 459.918 357.915 457.511 357.915 454.542C357.915 451.573 355.509 449.166 352.541 449.166C349.572 449.166 347.166 451.573 347.166 454.542Z" stroke="black" stroke-width="0.666667" stroke-miterlimit="10" stroke-linecap="round" stroke-linejoin="round"/>
<path d="M350.07 454.542C350.07 455.907 351.176 457.013 352.54 457.013C353.905 457.013 355.013 455.907 355.013 454.542C355.013 453.177 353.905 452.071 352.54 452.071C351.176 452.071 350.07 453.177 350.07 454.542Z" fill="#E1F3FA"/>
<path d="M311.4 441.15H267.843V454.139H272.574V445.211H311.4V441.15Z" fill="white"/>
<path d="M311.4 441.15H267.843V454.139H272.574V445.211H311.4V441.15Z" stroke="black" stroke-width="0.666667" stroke-miterlimit="10" stroke-linecap="round" stroke-linejoin="round"/>
<path d="M275.633 454.542C275.633 457.511 273.227 459.918 270.258 459.918C267.291 459.918 264.885 457.511 264.885 454.542C264.885 451.573 267.291 449.166 270.258 449.166C273.227 449.166 275.633 451.573 275.633 454.542Z" fill="white"/>
<path d="M275.633 454.542C275.633 457.511 273.227 459.918 270.258 459.918C267.291 459.918 264.885 457.511 264.885 454.542C264.885 451.573 267.291 449.166 270.258 449.166C273.227 449.166 275.633 451.573 275.633 454.542Z" stroke="black" stroke-width="0.666667" stroke-miterlimit="10" stroke-linecap="round" stroke-linejoin="round"/>
<path d="M272.729 454.542C272.729 455.907 271.623 457.013 270.258 457.013C268.894 457.013 267.786 455.907 267.786 454.542C267.786 453.177 268.894 452.071 270.258 452.071C271.623 452.071 272.729 453.177 272.729 454.542Z" fill="#E1F3FA"/>
<path d="M223.002 328.938C223.776 338.44 231.626 347.85 236.335 351.623C244.086 357.819 272.721 359.782 288.033 360.335C289.521 360.395 290.884 360.436 292.09 360.465C305.69 360.811 367.9 367.605 365.178 326.806C362.455 285.998 370.276 281.583 379.454 245.875C388.631 210.174 409.708 185.005 346.477 176.844C323.223 173.846 309.025 179.814 300.376 188.555C285.495 203.587 286.99 226.831 286.99 226.831C286.99 244.326 277.567 276.858 259.189 295.938C253.639 301.712 247.26 306.253 240.076 308.783C226.299 313.63 222.365 321.314 223.002 328.938Z" fill="white"/>
<path d="M223.002 328.938C223.776 338.44 231.626 347.85 236.335 351.623C244.086 357.819 272.721 359.782 288.033 360.335C289.521 360.395 290.884 360.436 292.09 360.465C305.69 360.811 367.9 367.605 365.178 326.806C362.455 285.998 370.276 281.583 379.454 245.875C388.631 210.174 409.708 185.005 346.477 176.844C323.223 173.846 309.025 179.814 300.376 188.555C285.495 203.587 286.99 226.831 286.99 226.831C286.99 244.326 277.567 276.858 259.189 295.938C253.639 301.712 247.26 306.253 240.076 308.783C226.299 313.63 222.365 321.314 223.002 328.938Z" stroke="#000C68" stroke-width="0.666667" stroke-miterlimit="10" stroke-linecap="round" stroke-linejoin="round"/>
<path d="M223.002 328.938C223.776 338.44 231.626 347.85 236.335 351.623C244.086 357.819 272.639 359.405 287.951 359.958C290.069 359.958 291.767 359.981 293.285 359.821C306.817 358.395 369.318 356.669 361.805 319.643C354.29 282.616 361.521 277.57 366.412 243.697C371.305 209.823 389.238 184.085 325.563 184.691C315.389 184.79 307.109 186.217 300.376 188.555C265.002 200.826 272.461 238.075 272.461 238.075C274.233 251.833 270.422 276.643 259.189 295.938C253.393 305.901 245.611 314.39 235.605 319.131C229.212 322.16 225.225 325.501 223.002 328.938Z" fill="#E1F3FA"/>
<path d="M219.242 404.909L244.21 469.613L273.172 464.89L248.88 396.393L219.242 404.909Z" fill="white"/>
<path d="M219.242 404.909L244.21 469.613L273.172 464.89L248.88 396.393L219.242 404.909Z" stroke="#000C68" stroke-width="0.666667" stroke-miterlimit="10" stroke-linecap="round" stroke-linejoin="round"/>
<path d="M272.541 461.441L244.058 463.466C244.058 463.466 211.212 468.869 213.696 485.822L273.969 481.538C273.969 481.538 279.093 478.106 276.696 473.162C274.3 468.219 272.541 461.441 272.541 461.441Z" fill="#E1F3FA"/>
<path d="M250.151 466.484L242.429 451.309C242.429 451.309 234.905 455.168 238.409 461.31C241.913 467.454 243.294 468.889 243.294 468.889L250.151 466.484Z" fill="#E1F3FA"/>
<path d="M227.074 465.44L233.202 472.548" stroke="white" stroke-width="0.666667" stroke-miterlimit="10" stroke-linecap="round" stroke-linejoin="round"/>
<path d="M230.003 464.115L236.131 471.223" stroke="white" stroke-width="0.666667" stroke-miterlimit="10" stroke-linecap="round" stroke-linejoin="round"/>
<path d="M232.671 462.103L238.799 469.209" stroke="white" stroke-width="0.666667" stroke-miterlimit="10" stroke-linecap="round" stroke-linejoin="round"/>
<path d="M266.688 288.551C266.688 288.551 213.996 303.343 207.878 318.643C201.76 333.944 225.216 436.637 225.216 436.637L262.61 425.414L244.931 330.545L317.34 288.551H266.688Z" fill="white"/>
<path d="M266.688 288.551C266.688 288.551 213.996 303.343 207.878 318.643C201.76 333.944 225.216 436.637 225.216 436.637L262.61 425.414L244.931 330.545L317.34 288.551H266.688Z" stroke="#000C68" stroke-width="0.666667" stroke-miterlimit="10" stroke-linecap="round" stroke-linejoin="round"/>
<path d="M206.86 395.092L170.434 454.366L191.122 475.179L229.52 413.055L206.86 395.092Z" fill="white"/>
<path d="M206.86 395.092L170.434 454.366L191.122 475.179L229.52 413.055L206.86 395.092Z" stroke="#000C68" stroke-width="0.666667" stroke-miterlimit="10" stroke-linecap="round" stroke-linejoin="round"/>
<path d="M193.56 472.659L175.342 450.664C175.342 450.664 151.839 427.086 139.499 438.97L178.05 485.512C178.05 485.512 183.823 487.684 186.449 482.86C189.073 478.034 193.56 472.659 193.56 472.659Z" fill="#E1F3FA"/>
<path d="M176.432 457.379L184.279 442.265C184.279 442.265 176.764 438.391 173.808 444.815C170.852 451.239 170.487 453.198 170.487 453.198L176.432 457.379Z" fill="#E1F3FA"/>
<path d="M163.856 437.996L161.642 447.118" stroke="white" stroke-width="0.666667" stroke-miterlimit="10" stroke-linecap="round" stroke-linejoin="round"/>
<path d="M166.636 439.607L164.424 448.729" stroke="white" stroke-width="0.666667" stroke-miterlimit="10" stroke-linecap="round" stroke-linejoin="round"/>
<path d="M169.826 440.607L167.612 449.728" stroke="white" stroke-width="0.666667" stroke-miterlimit="10" stroke-linecap="round" stroke-linejoin="round"/>
<path d="M356.433 288.551C356.433 288.551 371.731 346.695 329.407 349.757C287.085 352.817 275.356 349.757 275.356 349.757L226.404 428.815L195.3 403.821C195.3 403.821 231.504 330.884 235.072 316.603C238.643 302.322 262.754 292.63 277.214 288.551H356.433Z" fill="white"/>
<path d="M356.433 288.551C356.433 288.551 371.731 346.695 329.407 349.757C287.085 352.817 275.356 349.757 275.356 349.757L226.404 428.815L195.3 403.821C195.3 403.821 231.504 330.884 235.072 316.603C238.643 302.322 262.754 292.63 277.214 288.551H356.433Z" stroke="#000C68" stroke-width="0.666667" stroke-miterlimit="10" stroke-linecap="round" stroke-linejoin="round"/>
<path d="M39.6963 294.16H462.926V288.55H39.6963V294.16Z" fill="#000C68"/>
<path d="M281.434 192.66C281.434 192.66 302.276 206.176 341.141 192.964C341.141 192.964 336.607 183.219 336.712 152.105C336.821 120.402 323.827 114.18 309.287 112.731C294.744 111.284 281.434 116.037 278.242 146.01C275.733 169.593 281.434 192.66 281.434 192.66Z" fill="#1A1A1A"/>
<path d="M310.031 183.989C310.031 183.989 356.944 183.479 361.021 213.573C365.102 243.665 363.062 279.369 356.433 288.551H266.687L262.609 207.451C262.609 207.451 263.119 183.989 310.031 183.989Z" fill="#1D3277"/>
<path d="M310.031 183.989C310.031 183.989 356.944 183.479 361.021 213.573C365.102 243.665 363.062 279.369 356.433 288.551H266.687L262.609 207.451C262.609 207.451 263.119 183.989 310.031 183.989Z" stroke="black" stroke-width="0.666667" stroke-miterlimit="10"/>
<path d="M267.687 196.827C267.687 196.827 254.448 207.671 246.904 244.081C239.361 280.49 239.296 284.855 239.296 284.855L266.512 285.011L286.233 220.33" fill="#1D3277"/>
<path d="M267.687 196.827C267.687 196.827 254.448 207.671 246.904 244.081C239.361 280.49 239.296 284.855 239.296 284.855L266.512 285.011L286.233 220.33" stroke="black" stroke-width="0.666667" stroke-miterlimit="10"/>
<path d="M271.085 272.828C271.085 272.828 270.39 278.781 269.814 280.203C269.814 280.203 277.829 279.714 277.035 283.216C276.24 286.717 256.997 283.183 254.193 282.087C252.053 281.249 252.007 270.02 252.735 265.996L241.055 280.293C241.055 280.293 236.162 281.519 237.819 277.22C239.476 272.921 249.459 257.782 249.459 257.782C249.459 257.782 254.012 251.768 264.47 254.531C274.928 257.295 282.185 258.194 282.185 258.194C282.185 258.194 296.574 274.202 271.085 272.828Z" fill="white"/>
<path d="M271.085 272.828C271.085 272.828 270.39 278.781 269.814 280.203C269.814 280.203 277.829 279.714 277.035 283.216C276.24 286.717 256.997 283.183 254.193 282.087C252.053 281.249 252.007 270.02 252.735 265.996L241.055 280.293C241.055 280.293 236.162 281.519 237.819 277.22C239.476 272.921 249.459 257.782 249.459 257.782C249.459 257.782 254.012 251.768 264.47 254.531C274.928 257.295 282.185 258.194 282.185 258.194C282.185 258.194 296.574 274.202 271.085 272.828Z" stroke="#000C68" stroke-width="0.666667" stroke-miterlimit="10" stroke-linecap="round" stroke-linejoin="round"/>
<path d="M264.349 270.007C264.349 270.007 261.107 282.381 265.746 283.694" stroke="#000C68" stroke-width="0.666667" stroke-miterlimit="10" stroke-linecap="round" stroke-linejoin="round"/>
<path d="M258.189 267.063C258.189 267.063 255.017 281.669 259.654 282.982" stroke="#000C68" stroke-width="0.666667" stroke-miterlimit="10" stroke-linecap="round" stroke-linejoin="round"/>
<path d="M356.422 288.399L273.172 278.349L277.335 254.886L334.597 260.751C334.597 260.751 330.178 238.055 334.002 223.518" fill="#1D3277"/>
<path d="M356.422 288.399L273.172 278.349L277.335 254.886L334.597 260.751C334.597 260.751 330.178 238.055 334.002 223.518" stroke="black" stroke-width="0.666667" stroke-miterlimit="10"/>
<path d="M292.503 176.524V184.498V185.017C292.503 193.338 299.245 200.082 307.562 200.082C315.881 200.082 322.624 193.338 322.624 185.017V184.669V162.319C322.624 162.319 331.374 161.44 331.374 154.417C331.374 145.933 326.884 146.963 326.884 146.963V134.849H286.318V165.439C286.318 172.63 292.145 178.46 299.337 178.46H305.556" fill="white"/>
<path d="M292.503 176.524V184.498V185.017C292.503 193.338 299.245 200.082 307.562 200.082C315.881 200.082 322.624 193.338 322.624 185.017V184.669V162.319C322.624 162.319 331.374 161.44 331.374 154.417C331.374 145.933 326.884 146.963 326.884 146.963V134.849H286.318V165.439C286.318 172.63 292.145 178.46 299.337 178.46H305.556" stroke="#000C68" stroke-width="0.666667" stroke-miterlimit="10" stroke-linecap="round" stroke-linejoin="round"/>
<path d="M298.348 155.194C298.568 157.128 298.174 159.127 297.237 160.833C296.605 161.985 295.701 163.123 295.81 164.43C295.933 165.937 297.672 167.074 299.102 166.583" fill="white"/>
<path d="M298.348 155.194C298.568 157.128 298.174 159.127 297.237 160.833C296.605 161.985 295.701 163.123 295.81 164.43C295.933 165.937 297.672 167.074 299.102 166.583" stroke="#000C68" stroke-width="0.666667" stroke-miterlimit="10" stroke-linecap="round" stroke-linejoin="round"/>
<path d="M304.712 154.487C304.712 156.284 305.596 157.739 306.686 157.739C307.776 157.739 308.658 156.284 308.658 154.487C308.658 152.691 307.776 151.234 306.686 151.234C305.596 151.234 304.712 152.691 304.712 154.487Z" fill="#000C68"/>
<path d="M290.603 154.487C290.603 156.284 291.488 157.739 292.577 157.739C293.669 157.739 294.55 156.284 294.55 154.487C294.55 152.691 293.669 151.234 292.577 151.234C291.488 151.234 290.603 152.691 290.603 154.487Z" fill="#000C68"/>
<path d="M304.093 169.461C302.146 171.177 299.243 171.724 296.805 170.834L304.093 169.461Z" fill="white"/>
<path d="M304.093 169.461C302.146 171.177 299.243 171.724 296.805 170.834" stroke="#000C68" stroke-width="0.666667" stroke-miterlimit="10" stroke-linecap="round" stroke-linejoin="round"/>
<path d="M327.5 152.105C327.39 152.886 327.498 153.68 327.492 154.469C327.487 155.259 327.341 156.096 326.817 156.687C326.302 157.266 325.511 157.505 324.757 157.698" stroke="#000C68" stroke-width="0.666667" stroke-miterlimit="10" stroke-linecap="round" stroke-linejoin="round"/>
<path d="M293.477 131.53C293.477 131.53 295.516 143.772 319.716 144.941C319.716 144.941 318.977 156.36 322.031 155.865C326.235 155.186 327.5 145.11 327.5 145.11C327.5 145.11 331.181 135.59 326.129 128.619C321.076 121.649 295.807 116.724 293.477 131.53Z" fill="#1A1A1A"/>
<path d="M296.344 132.614C296.344 132.614 295.198 140.71 281.686 144.027C281.686 144.027 278.306 123.688 296.344 132.614Z" fill="#1A1A1A"/>
<path d="M296.194 146.379C296.505 146.424 296.831 146.495 297.063 146.707C297.296 146.919 297.386 147.315 297.176 147.548C297.032 147.711 296.796 147.749 296.581 147.778C294.083 148.109 291.583 148.439 289.087 148.771C288.686 148.824 288.192 148.837 287.976 148.496C287.809 148.232 287.909 147.868 288.123 147.644C288.336 147.42 288.637 147.302 288.931 147.202C289.905 146.866 290.912 146.621 291.934 146.474C292.77 146.353 293.598 146.351 294.435 146.303C295.022 146.269 295.614 146.293 296.194 146.379Z" fill="#000C68"/>
<path d="M303.376 146.379C303.065 146.424 302.739 146.495 302.507 146.707C302.274 146.919 302.184 147.315 302.394 147.548C302.538 147.711 302.772 147.749 302.989 147.778C305.487 148.109 307.985 148.439 310.483 148.771C310.884 148.824 311.376 148.837 311.593 148.496C311.759 148.232 311.661 147.868 311.445 147.644C311.232 147.42 310.931 147.302 310.639 147.202C309.664 146.866 308.656 146.621 307.636 146.474C306.8 146.353 305.971 146.351 305.133 146.303C304.548 146.269 303.956 146.293 303.376 146.379Z" fill="#000C68"/>
<path d="M257.413 288.596L220.845 215.621C220.531 215 219.893 214.605 219.194 214.605H144.242C142.882 214.605 141.989 216.019 142.579 217.237L177.113 288.596H257.413Z" fill="white"/>
<path d="M257.413 288.596L220.845 215.621C220.531 215 219.893 214.605 219.194 214.605H144.242C142.882 214.605 141.989 216.019 142.579 217.237L177.113 288.596H257.413Z" stroke="#000C68" stroke-width="0.666667" stroke-miterlimit="10" stroke-linecap="round" stroke-linejoin="round"/>
<path d="M254.34 288.596L218.974 217.643C218.671 217.038 218.055 216.656 217.378 216.656H144.892C143.576 216.656 142.714 218.029 143.284 219.215L176.682 288.596H254.34Z" fill="white"/>
<path d="M254.34 288.596L218.974 217.643C218.671 217.038 218.055 216.656 217.378 216.656H144.892C143.576 216.656 142.714 218.029 143.284 219.215L176.682 288.596H254.34Z" stroke="#000C68" stroke-width="0.666667" stroke-miterlimit="10" stroke-linecap="round" stroke-linejoin="round"/>
<path d="M255.565 284.907H300.256V288.596H257.413L255.565 284.907Z" fill="white"/>
<path d="M255.565 284.907H300.256V288.596H257.413L255.565 284.907Z" stroke="#000C68" stroke-width="0.666667" stroke-miterlimit="10" stroke-linecap="round" stroke-linejoin="round"/>
<path d="M251.311 284.855L176.31 284.907L174.271 281.027L248.59 280.389L251.311 284.855Z" fill="#E1F3FA"/>
<path d="M194.115 247.328C194.115 245.015 192.78 243.019 190.843 242.055C193.997 240.978 197.787 243.705 199.312 248.146C200.837 252.594 199.514 257.075 196.356 258.159C193.48 259.147 190.081 256.969 188.345 253.215C191.541 253.15 194.115 250.541 194.115 247.328Z" fill="#E1F3FA"/>
<path d="M131.598 288.551H147.4L148.935 260.948H130.064L131.598 288.551Z" fill="white"/>
<path d="M131.598 288.551H147.4L148.935 260.948H130.064L131.598 288.551Z" stroke="#000C68" stroke-width="0.666667" stroke-miterlimit="10" stroke-linecap="round" stroke-linejoin="round"/>
<path d="M128.027 260.947H150.972V257.436H128.027V260.947Z" fill="white" stroke="#000C68" stroke-width="0.666667" stroke-miterlimit="10" stroke-linecap="round" stroke-linejoin="round"/>
<path d="M129.66 257.436H149.336V255.047H129.66V257.436Z" fill="white" stroke="#000C68" stroke-width="0.666667" stroke-miterlimit="10" stroke-linecap="round" stroke-linejoin="round"/>
<path d="M135.293 271.76C135.293 274.084 137.177 275.97 139.5 275.97C141.822 275.97 143.706 274.084 143.706 271.76C143.706 269.436 141.822 267.551 139.5 267.551C137.177 267.551 135.293 269.436 135.293 271.76Z" fill="#E1F3FA"/>
<path d="M259.183 10.2655L204.792 0.404597L248.644 16.0458L259.183 10.2655Z" fill="white"/>
<path d="M259.183 10.2655L204.792 0.404597L248.644 16.0458L259.183 10.2655Z" stroke="#000C68" stroke-width="0.666667" stroke-miterlimit="10" stroke-linecap="round" stroke-linejoin="round"/>
<path d="M204.793 0.404278L242.271 21.2307L229.269 33.4722L204.793 0.404278Z" fill="white"/>
<path d="M204.793 0.404278L242.271 21.2307L229.269 33.4722L204.793 0.404278Z" stroke="#000C68" stroke-width="0.666667" stroke-miterlimit="10" stroke-linecap="round" stroke-linejoin="round"/>
<path d="M248.644 16.0461L245.076 33.4728L242.271 21.2312L204.793 0.404858L248.644 16.0461Z" fill="white"/>
<path d="M248.644 16.0461L245.076 33.4728L242.271 21.2312L204.793 0.404858L248.644 16.0461Z" stroke="#000C68" stroke-width="0.666667" stroke-miterlimit="10" stroke-linecap="round" stroke-linejoin="round"/>
<path d="M245.076 33.4727L236.455 26.7057L242.271 21.2311L245.076 33.4727Z" fill="white"/>
<path d="M245.076 33.4727L236.455 26.7057L242.271 21.2311L245.076 33.4727Z" stroke="#000C68" stroke-width="0.666667" stroke-miterlimit="10" stroke-linecap="round" stroke-linejoin="round"/>
<path d="M248.502 36.4989C249.136 37.3722 249.755 38.2553 250.36 39.148" stroke="#000C68" stroke-width="0.666667" stroke-linecap="round" stroke-linejoin="round"/>
<path d="M253.831 44.6236C269.758 71.5829 273.538 105.553 264.545 135.459C262.427 142.506 259.513 149.522 254.433 154.845C245.611 164.091 231.779 166.656 219.015 166.092C195.04 165.034 172.83 155.006 150.056 148.508C132.97 143.633 110.625 139.504 96.0017 151.811" stroke="#000C68" stroke-width="0.666667" stroke-linecap="round" stroke-linejoin="round" stroke-dasharray="5.35 5.35"/>
<path d="M93.6265 154.029C92.8908 154.791 92.1778 155.602 91.4938 156.464" stroke="#000C68" stroke-width="0.666667" stroke-linecap="round" stroke-linejoin="round"/>
<path d="M142.863 27.6676C142.863 29.3448 144.223 30.7033 145.899 30.7033C147.574 30.7033 148.934 29.3448 148.934 27.6676C148.934 25.9904 147.574 24.6303 145.899 24.6303C144.223 24.6303 142.863 25.9904 142.863 27.6676Z" fill="#E1F3FA"/>
<path d="M132.696 27.6676C132.696 29.3448 134.055 30.7033 135.732 30.7033C137.409 30.7033 138.769 29.3448 138.769 27.6676C138.769 25.9904 137.409 24.6303 135.732 24.6303C134.055 24.6303 132.696 25.9904 132.696 27.6676Z" fill="#E1F3FA"/>
<path d="M122.53 27.6676C122.53 29.3448 123.888 30.7033 125.565 30.7033C127.242 30.7033 128.601 29.3448 128.601 27.6676C128.601 25.9904 127.242 24.6303 125.565 24.6303C123.888 24.6303 122.53 25.9904 122.53 27.6676Z" fill="#E1F3FA"/>
<path d="M112.363 27.6676C112.363 29.3448 113.723 30.7033 115.399 30.7033C117.076 30.7033 118.434 29.3448 118.434 27.6676C118.434 25.9904 117.076 24.6303 115.399 24.6303C113.723 24.6303 112.363 25.9904 112.363 27.6676Z" fill="#E1F3FA"/>
<path d="M102.196 27.6676C102.196 29.3448 103.556 30.7033 105.232 30.7033C106.909 30.7033 108.269 29.3448 108.269 27.6676C108.269 25.9904 106.909 24.6303 105.232 24.6303C103.556 24.6303 102.196 25.9904 102.196 27.6676Z" fill="#E1F3FA"/>
<path d="M132.696 37.6393C132.696 39.3164 134.055 40.675 135.732 40.675C137.409 40.675 138.769 39.3164 138.769 37.6393C138.769 35.9621 137.409 34.6019 135.732 34.6019C134.055 34.6019 132.696 35.9621 132.696 37.6393Z" fill="#E1F3FA"/>
<path d="M122.53 37.6393C122.53 39.3164 123.888 40.675 125.565 40.675C127.242 40.675 128.601 39.3164 128.601 37.6393C128.601 35.9621 127.242 34.6019 125.565 34.6019C123.888 34.6019 122.53 35.9621 122.53 37.6393Z" fill="#E1F3FA"/>
<path d="M112.363 37.6393C112.363 39.3164 113.723 40.675 115.399 40.675C117.076 40.675 118.434 39.3164 118.434 37.6393C118.434 35.9621 117.076 34.6019 115.399 34.6019C113.723 34.6019 112.363 35.9621 112.363 37.6393Z" fill="#E1F3FA"/>
<path d="M102.196 37.6393C102.196 39.3164 103.556 40.675 105.232 40.675C106.909 40.675 108.269 39.3164 108.269 37.6393C108.269 35.9621 106.909 34.6019 105.232 34.6019C103.556 34.6019 102.196 35.9621 102.196 37.6393Z" fill="#E1F3FA"/>
<path d="M92.0302 37.6393C92.0302 39.3164 93.3883 40.675 95.0651 40.675C96.7418 40.675 98.1016 39.3164 98.1016 37.6393C98.1016 35.9621 96.7418 34.6019 95.0651 34.6019C93.3883 34.6019 92.0302 35.9621 92.0302 37.6393Z" fill="#E1F3FA"/>
<path d="M164.552 18.195C164.552 19.8721 165.912 21.2307 167.587 21.2307C169.263 21.2307 170.623 19.8721 170.623 18.195C170.623 16.5178 169.263 15.1576 167.587 15.1576C165.912 15.1576 164.552 16.5178 164.552 18.195Z" fill="#E1F3FA"/>
<path d="M154.385 18.195C154.385 19.8721 155.745 21.2307 157.421 21.2307C159.098 21.2307 160.456 19.8721 160.456 18.195C160.456 16.5178 159.098 15.1576 157.421 15.1576C155.745 15.1576 154.385 16.5178 154.385 18.195Z" fill="#E1F3FA"/>
<path d="M144.218 18.195C144.218 19.8721 145.577 21.2307 147.254 21.2307C148.931 21.2307 150.291 19.8721 150.291 18.195C150.291 16.5178 148.931 15.1576 147.254 15.1576C145.577 15.1576 144.218 16.5178 144.218 18.195Z" fill="#E1F3FA"/>
<path d="M134.052 18.195C134.052 19.8721 135.412 21.2307 137.087 21.2307C138.764 21.2307 140.123 19.8721 140.123 18.195C140.123 16.5178 138.764 15.1576 137.087 15.1576C135.412 15.1576 134.052 16.5178 134.052 18.195Z" fill="#E1F3FA"/>
<path d="M123.885 18.195C123.885 19.8721 125.245 21.2307 126.921 21.2307C128.598 21.2307 129.958 19.8721 129.958 18.195C129.958 16.5178 128.598 15.1576 126.921 15.1576C125.245 15.1576 123.885 16.5178 123.885 18.195Z" fill="#E1F3FA"/>
<path d="M183.255 197.787L163.088 191.633L168.857 187.522L160.79 179.322L165.164 175.02L173.229 183.22L177.454 177.674L183.255 197.787Z" fill="#E1F3FA"/>
<path d="M183.723 194.884L163.555 188.73L169.324 184.62L161.257 176.419L165.631 172.116L173.696 180.316L177.923 174.771L183.723 194.884Z" stroke="#000C68" stroke-width="0.666667" stroke-miterlimit="10" stroke-linecap="round" stroke-linejoin="round"/>
<path d="M466.434 243.632L466.487 243.967C467.496 250.248 461.328 255.265 455.386 252.998L455.069 252.878C449.127 250.609 447.867 242.757 452.8 238.744L453.062 238.531C457.997 234.515 465.427 237.35 466.434 243.632Z" stroke="#000C68" stroke-width="0.666667" stroke-miterlimit="10" stroke-linecap="round" stroke-linejoin="round"/>
<path d="M64.5635 37.6361L65.0065 37.9272C68.5588 40.2513 68.2629 45.5481 64.4746 47.463L64.0008 47.7023C60.2157 49.6173 55.7741 46.7109 56.0117 42.4735L56.0408 41.943C56.2769 37.704 61.0128 35.312 64.5635 37.6361Z" stroke="#000C68" stroke-width="0.666667" stroke-miterlimit="10" stroke-linecap="round" stroke-linejoin="round"/>
<path d="M315.237 84.1384L327.309 77.1677L320.338 65.0943L308.268 72.065L315.237 84.1384Z" stroke="#000C68" stroke-width="0.666667" stroke-miterlimit="10" stroke-linecap="round" stroke-linejoin="round"/>
<path d="M110.811 214.702C110.811 218.057 113.53 220.775 116.882 220.775C120.236 220.775 122.955 218.057 122.955 214.702C122.955 211.348 120.236 208.629 116.882 208.629C113.53 208.629 110.811 211.348 110.811 214.702Z" stroke="#000C68" stroke-width="0.666667" stroke-miterlimit="10" stroke-linecap="round" stroke-linejoin="round"/>
<path d="M420.949 173.329C420.738 172.596 420.45 171.886 420.071 171.213L421.874 169.001C422.372 168.391 422.327 167.503 421.771 166.948L420.476 165.653C419.919 165.096 419.032 165.051 418.424 165.549L416.21 167.349C415.543 166.982 414.838 166.683 414.094 166.476L413.804 163.636C413.725 162.853 413.067 162.256 412.28 162.256H410.449C409.664 162.256 409.004 162.853 408.925 163.636L408.632 166.474C407.901 166.686 407.19 166.972 406.517 167.352L404.307 165.549C403.696 165.051 402.81 165.096 402.253 165.653L400.96 166.948C400.404 167.503 400.358 168.391 400.855 169.001L402.656 171.215C402.287 171.881 401.987 172.588 401.781 173.332L398.942 173.621C398.159 173.699 397.564 174.359 397.564 175.146V176.977C397.564 177.763 398.159 178.423 398.942 178.502L401.781 178.793C401.99 179.528 402.278 180.236 402.658 180.909L400.855 183.121C400.358 183.731 400.404 184.619 400.96 185.175L402.253 186.469C402.81 187.026 403.696 187.071 404.307 186.573L406.519 184.774C407.186 185.141 407.891 185.441 408.635 185.648L408.925 188.488C409.004 189.271 409.664 189.866 410.449 189.866H412.28C413.067 189.866 413.725 189.271 413.804 188.488L414.097 185.649C414.83 185.437 415.539 185.151 416.21 184.771L418.424 186.573C419.032 187.071 419.919 187.026 420.476 186.469L421.771 185.175C422.327 184.619 422.372 183.731 421.874 183.121L420.075 180.909C420.443 180.241 420.741 179.536 420.948 178.792L423.787 178.502C424.57 178.423 425.165 177.763 425.165 176.977V175.146C425.165 174.359 424.57 173.699 423.787 173.621L420.949 173.329Z" stroke="#000C68" stroke-width="0.666667" stroke-miterlimit="10" stroke-linecap="round" stroke-linejoin="round"/>
<path d="M406.764 176.062C406.764 173.521 408.824 171.46 411.365 171.46C413.905 171.46 415.964 173.521 415.964 176.062C415.964 178.602 413.905 180.663 411.365 180.663C408.824 180.663 406.764 178.602 406.764 176.062Z" stroke="#000C68" stroke-width="0.666667" stroke-miterlimit="10" stroke-linecap="round" stroke-linejoin="round"/>
<path d="M138.287 129.409L221.153 142.837C228.312 143.997 235.118 139.087 236.277 131.927L244.062 83.8645C245.222 76.7046 240.314 69.8956 233.155 68.736L150.289 55.3073C143.129 54.1477 136.322 59.0563 135.163 66.2178L127.379 114.28C126.218 121.44 131.127 128.249 138.287 129.409Z" fill="#E1F3FA"/>
<path d="M129.138 125.765L225.692 141.411C229.086 141.962 232.315 139.634 232.863 136.239L242.866 74.4842C243.417 71.0878 241.089 67.8596 237.695 67.3097L141.14 51.6636C137.745 51.1137 134.518 53.4411 133.966 56.8375L123.966 118.59C123.416 121.987 125.743 125.215 129.138 125.765Z" stroke="#000C68" stroke-width="0.666667" stroke-miterlimit="10" stroke-linecap="round" stroke-linejoin="round"/>
<path d="M241.879 80.5783L132.979 62.9316" stroke="#000C68" stroke-width="0.666667" stroke-miterlimit="10" stroke-linecap="round" stroke-linejoin="round"/>
<path d="M233.977 73.5041C233.775 74.751 234.621 75.9236 235.867 76.1258C237.112 76.3279 238.286 75.4804 238.488 74.2351C238.69 72.9898 237.845 71.8156 236.598 71.6134C235.353 71.4112 234.179 72.2571 233.977 73.5041Z" fill="white"/>
<path d="M233.977 73.5041C233.775 74.751 234.621 75.9236 235.867 76.1258C237.112 76.3279 238.286 75.4804 238.488 74.2351C238.69 72.9898 237.845 71.8156 236.598 71.6134C235.353 71.4112 234.179 72.2571 233.977 73.5041Z" stroke="#000C68" stroke-width="0.666667" stroke-miterlimit="10" stroke-linecap="round" stroke-linejoin="round"/>
<path d="M227.447 72.4458C227.244 73.6928 228.09 74.8653 229.337 75.0675C230.582 75.2697 231.756 74.4222 231.958 73.1768C232.16 71.9315 231.314 70.7573 230.067 70.5552C228.822 70.353 227.649 71.1989 227.447 72.4458Z" fill="white"/>
<path d="M227.447 72.4458C227.244 73.6928 228.09 74.8653 229.337 75.0675C230.582 75.2697 231.756 74.4222 231.958 73.1768C232.16 71.9315 231.314 70.7573 230.067 70.5552C228.822 70.353 227.649 71.1989 227.447 72.4458Z" stroke="#000C68" stroke-width="0.666667" stroke-miterlimit="10" stroke-linecap="round" stroke-linejoin="round"/>
<path d="M220.916 71.3876C220.714 72.6346 221.559 73.8071 222.806 74.0093C224.051 74.2115 225.225 73.364 225.427 72.1186C225.629 70.8733 224.783 69.6991 223.537 69.497C222.292 69.2948 221.118 70.1407 220.916 71.3876Z" fill="white"/>
<path d="M220.916 71.3876C220.714 72.6346 221.559 73.8071 222.806 74.0093C224.051 74.2115 225.225 73.364 225.427 72.1186C225.629 70.8733 224.783 69.6991 223.537 69.497C222.292 69.2948 221.118 70.1407 220.916 71.3876Z" stroke="#000C68" stroke-width="0.666667" stroke-miterlimit="10" stroke-linecap="round" stroke-linejoin="round"/>
<path d="M208.064 99.1239C208.622 99.5187 209.249 99.8585 209.944 100.143C209.195 100.194 208.493 100.318 207.839 100.517L200.231 102.996C199.911 103.09 199.669 103.236 199.505 103.434C199.34 103.633 199.237 103.861 199.195 104.119L198.644 107.523L215.281 102.001L215.594 100.066L201.548 89.5912L200.997 92.9958C200.955 93.2537 200.981 93.5027 201.074 93.7429C201.17 93.9701 201.354 94.1851 201.625 94.3879L208.064 99.1239ZM188.108 110.045C188.231 110.673 188.514 111.176 188.956 111.552C189.385 111.926 189.851 112.153 190.354 112.235L192.385 112.564L185.769 81.8329C185.65 81.2578 185.401 80.7939 185.022 80.4413C184.644 80.0757 184.172 79.8469 183.604 79.755L181.554 79.4227L188.108 110.045ZM158.533 90.8195L158.22 92.7539L172.263 103.248L172.814 99.8437C172.856 99.5857 172.83 99.3367 172.737 99.0966C172.643 98.8564 172.46 98.6414 172.186 98.4515L165.75 93.6962C165.192 93.3014 164.565 92.9616 163.87 92.6769C164.62 92.6263 165.321 92.5018 165.975 92.3034L173.58 89.8433C173.902 89.7366 174.144 89.5905 174.306 89.4051C174.471 89.2067 174.574 88.9786 174.616 88.7207L175.167 85.3161L158.533 90.8195Z" fill="white"/>
<path d="M197.105 98.808C196.73 98.5541 196.481 98.2727 196.365 97.9654C196.245 97.6565 196.213 97.3379 196.266 97.0112L197.005 92.4584L214.204 105.311L213.788 107.87L193.409 114.655L194.146 110.103C194.201 109.759 194.332 109.46 194.544 109.204C194.753 108.95 195.076 108.761 195.513 108.64L203.833 105.869C204.661 105.619 205.562 105.46 206.535 105.394C206.087 105.192 205.659 104.985 205.25 104.774C204.844 104.566 204.467 104.334 204.123 104.087L197.105 98.808Z" stroke="#00046A" stroke-width="0.666667" stroke-miterlimit="10" stroke-linecap="round" stroke-linejoin="round"/>
<path d="M177.174 80.9613L179.94 81.4093C180.692 81.5322 181.326 81.8362 181.842 82.3198C182.356 82.805 182.69 83.4196 182.841 84.1668L190.702 121.393L187.958 120.948C187.286 120.84 186.657 120.532 186.075 120.03C185.489 119.523 185.111 118.857 184.941 118.027L177.174 80.9613Z" stroke="#00046A" stroke-width="0.666667" stroke-miterlimit="10" stroke-linecap="round" stroke-linejoin="round"/>
<path d="M174.297 88.7786L173.559 93.3298C173.506 93.6597 173.377 93.9508 173.165 94.2064C172.955 94.4619 172.633 94.6495 172.195 94.7708L163.873 97.5639C163.449 97.6885 163.014 97.7904 162.569 97.8712C162.123 97.9521 161.648 98.0055 161.145 98.0378C161.612 98.2254 162.045 98.4292 162.445 98.6443C162.841 98.8627 163.221 99.0956 163.583 99.3462L170.602 104.603C170.979 104.856 171.226 105.136 171.344 105.445C171.464 105.754 171.495 106.079 171.438 106.424L170.701 110.976L153.503 98.0993L153.917 95.5423L174.297 88.7786Z" stroke="#00046A" stroke-width="0.666667" stroke-miterlimit="10" stroke-linecap="round" stroke-linejoin="round"/>
<path d="M76.5165 230.946L89.5454 233.404L96.131 198.457L83.1021 196.002L76.5165 230.946Z" fill="#E1F3FA"/>
<path d="M30.3324 222.237L43.3613 224.695L54.3239 166.525L41.2949 164.068L30.3324 222.237Z" fill="#E1F3FA"/>
<path d="M53.4236 226.591L66.4525 229.05L75.2112 182.582L62.1823 180.126L53.4236 226.591Z" fill="#E1F3FA"/>
<path d="M71.2553 229.954L84.2843 232.412L91.5312 193.951L78.5023 191.494L71.2553 229.954Z" stroke="#000C68" stroke-width="0.666667" stroke-miterlimit="10" stroke-linecap="round" stroke-linejoin="round"/>
<path d="M25.0712 221.245L38.1001 223.703L50.6812 156.943L37.6522 154.486L25.0712 221.245Z" stroke="#000C68" stroke-width="0.666667" stroke-miterlimit="10" stroke-linecap="round" stroke-linejoin="round"/>
<path d="M48.1624 225.6L61.1913 228.058L71.1546 175.192L58.1257 172.735L48.1624 225.6Z" stroke="#000C68" stroke-width="0.666667" stroke-miterlimit="10" stroke-linecap="round" stroke-linejoin="round"/>
<path d="M96.5603 234.725L10.8731 218.568" stroke="#000C68" stroke-width="0.666667" stroke-miterlimit="10" stroke-linecap="round" stroke-linejoin="round"/>
<path d="M448.759 95.9777V140.074C448.759 141.837 447.329 143.267 445.567 143.267H367.243L355.188 162.722V143.267V138.83V95.9777C355.188 94.2148 356.617 92.7851 358.379 92.7851H445.567C447.329 92.7851 448.759 94.2148 448.759 95.9777Z" fill="#E1F3FA"/>
<path d="M445.252 92.563V136.66C445.252 138.422 443.822 139.852 442.06 139.852H363.736L351.679 159.307V139.852V135.416V92.563C351.679 90.8001 353.11 89.3704 354.872 89.3704H442.06C443.822 89.3704 445.252 90.8001 445.252 92.563Z" stroke="#000C68" stroke-width="0.666667" stroke-miterlimit="10" stroke-linecap="round" stroke-linejoin="round"/>
<path d="M364.871 106.355H429.762C431.241 106.355 432.453 105.142 432.453 103.662C432.453 102.181 431.241 100.97 429.762 100.97H364.871C363.392 100.97 362.181 102.181 362.181 103.662C362.181 105.142 363.392 106.355 364.871 106.355Z" fill="white"/>
<path d="M364.871 106.355H429.762C431.241 106.355 432.453 105.142 432.453 103.662C432.453 102.181 431.241 100.97 429.762 100.97H364.871C363.392 100.97 362.181 102.181 362.181 103.662C362.181 105.142 363.392 106.355 364.871 106.355Z" stroke="#000C68" stroke-width="0.666667" stroke-miterlimit="10" stroke-linecap="round" stroke-linejoin="round"/>
<path d="M373.897 115.699H430.05C431.444 115.699 432.584 114.559 432.584 113.165C432.584 111.771 431.444 110.63 430.05 110.63H373.897C372.505 110.63 371.365 111.771 371.365 113.165C371.365 114.559 372.505 115.699 373.897 115.699Z" fill="white"/>
<path d="M373.897 115.699H430.05C431.444 115.699 432.584 114.559 432.584 113.165C432.584 111.771 431.444 110.63 430.05 110.63H373.897C372.505 110.63 371.365 111.771 371.365 113.165C371.365 114.559 372.505 115.699 373.897 115.699Z" stroke="#000C68" stroke-width="0.666667" stroke-miterlimit="10" stroke-linecap="round" stroke-linejoin="round"/>
<path d="M392.681 125.043H430.049C431.444 125.043 432.584 123.903 432.584 122.509C432.584 121.115 431.444 119.974 430.049 119.974H392.681C391.287 119.974 390.147 121.115 390.147 122.509C390.147 123.903 391.287 125.043 392.681 125.043Z" fill="white"/>
<path d="M392.681 125.043H430.049C431.444 125.043 432.584 123.903 432.584 122.509C432.584 121.115 431.444 119.974 430.049 119.974H392.681C391.287 119.974 390.147 121.115 390.147 122.509C390.147 123.903 391.287 125.043 392.681 125.043Z" stroke="#000C68" stroke-width="0.666667" stroke-miterlimit="10" stroke-linecap="round" stroke-linejoin="round"/>
<path d="M67.5004 103.515L27.4823 117.961L22.3681 122.176L0.404198 74.3226L6.12154 70.1078L45.8373 56.5643L67.5004 103.515Z" fill="white"/>
<path d="M67.5004 103.515L27.4823 117.961L22.3681 122.176L0.404198 74.3226L6.12154 70.1078L45.8373 56.5643L67.5004 103.515Z" stroke="black" stroke-width="0.666667" stroke-miterlimit="10" stroke-linecap="round" stroke-linejoin="round"/>
<path d="M62.3876 105.361L65.0943 111.04L25.1958 119.848L27.4837 117.962L62.3876 105.361Z" fill="white"/>
<path d="M62.3876 105.361L65.0943 111.04L25.1958 119.848L27.4837 117.962L62.3876 105.361Z" stroke="black" stroke-width="0.666667" stroke-miterlimit="10" stroke-linecap="round" stroke-linejoin="round"/>
<path d="M61.3661 111.863L63.0881 116.055L22.3683 122.175L25.1946 119.848L61.3661 111.863Z" fill="white"/>
<path d="M61.3661 111.863L63.0881 116.055L22.3683 122.175L25.1946 119.848L61.3661 111.863Z" stroke="black" stroke-width="0.666667" stroke-miterlimit="10" stroke-linecap="round" stroke-linejoin="round"/>
<path d="M6.1209 70.1083L25.1954 114.852L6.1209 70.1083Z" fill="white"/>
<path d="M6.1209 70.1083L25.1954 114.852" stroke="black" stroke-width="0.666667" stroke-miterlimit="10" stroke-linecap="round" stroke-linejoin="round"/>
<path d="M44.1826 59.5743L63.0889 101.709L30.1916 114.049L10.784 70.8616L44.1826 59.5743Z" fill="#E1F3FA"/>
<path d="M286.067 24.6303C286.067 31.8307 291.902 37.6676 299.102 37.6676C306.301 37.6676 312.134 31.8307 312.134 24.6303C312.134 17.4299 306.301 11.593 299.102 11.593C291.902 11.593 286.067 17.4299 286.067 24.6303Z" fill="#E1F3FA"/>
<path d="M292.201 24.6303C292.201 31.8307 295.289 37.6676 299.102 37.6676C302.911 37.6676 306.001 31.8307 306.001 24.6303C306.001 17.4299 302.911 11.593 299.102 11.593C295.289 11.593 292.201 17.4299 292.201 24.6303Z" fill="#E1F3FA"/>
<path d="M289.924 15.382C291.373 17.6851 295.213 19.262 299.102 19.262C302.987 19.262 306.829 17.6851 308.279 15.382" fill="#E1F3FA"/>
<path d="M308.279 33.8794C306.83 31.5763 302.988 29.9994 299.101 29.9994C295.214 29.9994 291.372 31.5763 289.924 33.8794" fill="#E1F3FA"/>
<path d="M284.709 23.6922C284.709 30.8925 290.544 36.7295 297.744 36.7295C304.943 36.7295 310.776 30.8925 310.776 23.6922C310.776 16.4918 304.943 10.6549 297.744 10.6549C290.544 10.6549 284.709 16.4918 284.709 23.6922Z" stroke="#000C68" stroke-width="0.666667" stroke-miterlimit="10" stroke-linecap="round" stroke-linejoin="round"/>
<path d="M290.843 23.6922C290.843 30.8925 293.932 36.7295 297.744 36.7295C301.554 36.7295 304.643 30.8925 304.643 23.6922C304.643 16.4918 301.554 10.6549 297.744 10.6549C293.932 10.6549 290.843 16.4918 290.843 23.6922Z" stroke="#000C68" stroke-width="0.666667" stroke-miterlimit="10" stroke-linecap="round" stroke-linejoin="round"/>
<path d="M288.566 14.443C290.015 16.7461 293.855 18.323 297.744 18.323C301.631 18.323 305.473 16.7461 306.921 14.443" stroke="#000C68" stroke-width="0.666667" stroke-miterlimit="10" stroke-linecap="round" stroke-linejoin="round"/>
<path d="M306.921 32.9412C305.472 30.6381 301.632 29.0612 297.743 29.0612C293.856 29.0612 290.014 30.6381 288.566 32.9412" stroke="#000C68" stroke-width="0.666667" stroke-miterlimit="10" stroke-linecap="round" stroke-linejoin="round"/>
<path d="M310.776 23.6922H284.709" stroke="#000C68" stroke-width="0.666667" stroke-miterlimit="10" stroke-linecap="round" stroke-linejoin="round"/>
<path d="M297.743 10.6547V36.7293" stroke="#000C68" stroke-width="0.666667" stroke-miterlimit="10" stroke-linecap="round" stroke-linejoin="round"/>
</g>
<defs>
<clipPath id="clip0_5_2">
<rect width="467" height="486" fill="white"/>
</clipPath>
</defs>
</svg>
